<svg width="432" height="72" viewBox="0 0 432 72" fill="none" xmlns="http://www.w3.org/2000/svg">
<rect x="144" width="9" height="9" fill="#C4C4C4"/>
<rect x="216" width="9" height="9" fill="#C4C4C4"/>
<rect x="144" y="36" width="9" height="9" fill="#C4C4C4"/>
<rect x="216" y="36" width="9" height="9" fill="#C4C4C4"/>
<rect x="144" y="18" width="9" height="9" fill="#C4C4C4"/>
<rect x="216" y="18" width="9" height="9" fill="#C4C4C4"/>
<rect x="144" y="54" width="9" height="9" fill="#C4C4C4"/>
<rect x="216" y="54" width="9" height="9" fill="#C4C4C4"/>
<rect x="162" width="9" height="9" fill="#C4C4C4"/>
<rect x="234" width="9" height="9" fill="#C4C4C4"/>
<rect x="162" y="36" width="9" height="9" fill="#C4C4C4"/>
<rect x="234" y="36" width="9" height="9" fill="#C4C4C4"/>
<rect x="162" y="18" width="9" height="9" fill="#C4C4C4"/>
<rect x="234" y="18" width="9" height="9" fill="#C4C4C4"/>
<rect x="162" y="54" width="9" height="9" fill="#C4C4C4"/>
<rect x="234" y="54" width="9" height="9" fill="#C4C4C4"/>
<rect x="180" width="9" height="9" fill="#C4C4C4"/>
<rect x="252" width="9" height="9" fill="#C4C4C4"/>
<rect x="180" y="36" width="9" height="9" fill="#C4C4C4"/>
<rect x="252" y="36" width="9" height="9" fill="#C4C4C4"/>
<rect x="180" y="18" width="9" height="9" fill="#C4C4C4"/>
<rect x="252" y="18" width="9" height="9" fill="#C4C4C4"/>
<rect x="180" y="54" width="9" height="9" fill="#C4C4C4"/>
<rect x="252" y="54" width="9" height="9" fill="#C4C4C4"/>
<rect x="198" width="9" height="9" fill="#C4C4C4"/>
<rect x="270" width="9" height="9" fill="#C4C4C4"/>
<rect x="198" y="36" width="9" height="9" fill="#C4C4C4"/>
<rect x="270" y="36" width="9" height="9" fill="#C4C4C4"/>
<rect x="198" y="18" width="9" height="9" fill="#C4C4C4"/>
<rect x="270" y="18" width="9" height="9" fill="#C4C4C4"/>
<rect x="198" y="54" width="9" height="9" fill="#C4C4C4"/>
<rect x="270" y="54" width="9" height="9" fill="#C4C4C4"/>
<rect x="153" width="9" height="9" fill="white"/>
<rect x="225" width="9" height="9" fill="white"/>
<rect x="153" y="36" width="9" height="9" fill="white"/>
<rect x="225" y="36" width="9" height="9" fill="white"/>
<rect x="153" y="18" width="9" height="9" fill="white"/>
<rect x="225" y="18" width="9" height="9" fill="white"/>
<rect x="153" y="54" width="9" height="9" fill="white"/>
<rect x="225" y="54" width="9" height="9" fill="white"/>
<rect x="171" width="9" height="9" fill="white"/>
<rect x="243" width="9" height="9" fill="white"/>
<rect x="171" y="36" width="9" height="9" fill="white"/>
<rect x="243" y="36" width="9" height="9" fill="white"/>
<rect x="171" y="18" width="9" height="9" fill="white"/>
<rect x="243" y="18" width="9" height="9" fill="white"/>
<rect x="171" y="54" width="9" height="9" fill="white"/>
<rect x="243" y="54" width="9" height="9" fill="white"/>
<rect x="189" width="9" height="9" fill="white"/>
<rect x="261" width="9" height="9" fill="white"/>
<rect x="189" y="36" width="9" height="9" fill="white"/>
<rect x="261" y="36" width="9" height="9" fill="white"/>
<rect x="189" y="18" width="9" height="9" fill="white"/>
<rect x="261" y="18" width="9" height="9" fill="white"/>
<rect x="189" y="54" width="9" height="9" fill="white"/>
<rect x="261" y="54" width="9" height="9" fill="white"/>
<rect x="207" width="9" height="9" fill="white"/>
<rect x="279" width="9" height="9" fill="white"/>
<rect x="207" y="36" width="9" height="9" fill="white"/>
<rect x="279" y="36" width="9" height="9" fill="white"/>
<rect x="207" y="18" width="9" height="9" fill="white"/>
<rect x="279" y="18" width="9" height="9" fill="white"/>
<rect x="207" y="54" width="9" height="9" fill="white"/>
<rect x="279" y="54" width="9" height="9" fill="white"/>
<rect x="144" y="9" width="9" height="9" fill="white"/>
<rect x="216" y="9" width="9" height="9" fill="white"/>
<rect x="144" y="45" width="9" height="9" fill="white"/>
<rect x="216" y="45" width="9" height="9" fill="white"/>
<rect x="144" y="27" width="9" height="9" fill="white"/>
<rect x="216" y="27" width="9" height="9" fill="white"/>
<rect x="144" y="63" width="9" height="9" fill="white"/>
<rect x="216" y="63" width="9" height="9" fill="white"/>
<rect x="162" y="9" width="9" height="9" fill="white"/>
<rect x="234" y="9" width="9" height="9" fill="white"/>
<rect x="162" y="45" width="9" height="9" fill="white"/>
<rect x="234" y="45" width="9" height="9" fill="white"/>
<rect x="162" y="27" width="9" height="9" fill="white"/>
<rect x="234" y="27" width="9" height="9" fill="white"/>
<rect x="162" y="63" width="9" height="9" fill="white"/>
<rect x="234" y="63" width="9" height="9" fill="white"/>
<rect x="180" y="9" width="9" height="9" fill="white"/>
<rect x="252" y="9" width="9" height="9" fill="white"/>
<rect x="180" y="45" width="9" height="9" fill="white"/>
<rect x="252" y="45" width="9" height="9" fill="white"/>
<rect x="180" y="27" width="9" height="9" fill="white"/>
<rect x="252" y="27" width="9" height="9" fill="white"/>
<rect x="180" y="63" width="9" height="9" fill="white"/>
<rect x="252" y="63" width="9" height="9" fill="white"/>
<rect x="198" y="9" width="9" height="9" fill="white"/>
<rect x="270" y="9" width="9" height="9" fill="white"/>
<rect x="198" y="45" width="9" height="9" fill="white"/>
<rect x="270" y="45" width="9" height="9" fill="white"/>
<rect x="198" y="27" width="9" height="9" fill="white"/>
<rect x="270" y="27" width="9" height="9" fill="white"/>
<rect x="198" y="63" width="9" height="9" fill="white"/>
<rect x="270" y="63" width="9" height="9" fill="white"/>
<rect x="153" y="9" width="9" height="9" fill="#C4C4C4"/>
<rect x="225" y="9" width="9" height="9" fill="#C4C4C4"/>
<rect x="153" y="45" width="9" height="9" fill="#C4C4C4"/>
<rect x="225" y="45" width="9" height="9" fill="#C4C4C4"/>
<rect x="153" y="27" width="9" height="9" fill="#C4C4C4"/>
<rect x="225" y="27" width="9" height="9" fill="#C4C4C4"/>
<rect x="153" y="63" width="9" height="9" fill="#C4C4C4"/>
<rect x="225" y="63" width="9" height="9" fill="#C4C4C4"/>
<rect x="171" y="9" width="9" height="9" fill="#C4C4C4"/>
<rect x="243" y="9" width="9" height="9" fill="#C4C4C4"/>
<rect x="171" y="45" width="9" height="9" fill="#C4C4C4"/>
<rect x="243" y="45" width="9" height="9" fill="#C4C4C4"/>
<rect x="171" y="27" width="9" height="9" fill="#C4C4C4"/>
<rect x="243" y="27" width="9" height="9" fill="#C4C4C4"/>
<rect x="171" y="63" width="9" height="9" fill="#C4C4C4"/>
<rect x="243" y="63" width="9" height="9" fill="#C4C4C4"/>
<rect x="189" y="9" width="9" height="9" fill="#C4C4C4"/>
<rect x="261" y="9" width="9" height="9" fill="#C4C4C4"/>
<rect x="189" y="45" width="9" height="9" fill="#C4C4C4"/>
<rect x="261" y="45" width="9" height="9" fill="#C4C4C4"/>
<rect x="189" y="27" width="9" height="9" fill="#C4C4C4"/>
<rect x="261" y="27" width="9" height="9" fill="#C4C4C4"/>
<rect x="189" y="63" width="9" height="9" fill="#C4C4C4"/>
<rect x="261" y="63" width="9" height="9" fill="#C4C4C4"/>
<rect x="207" y="9" width="9" height="9" fill="#C4C4C4"/>
<rect x="279" y="9" width="9" height="9" fill="#C4C4C4"/>
<rect x="207" y="45" width="9" height="9" fill="#C4C4C4"/>
<rect x="279" y="45" width="9" height="9" fill="#C4C4C4"/>
<rect x="207" y="27" width="9" height="9" fill="#C4C4C4"/>
<rect x="279" y="27" width="9" height="9" fill="#C4C4C4"/>
<rect x="207" y="63" width="9" height="9" fill="#C4C4C4"/>
<rect x="279" y="63" width="9" height="9" fill="#C4C4C4"/>
<rect width="9" height="9" fill="#C4C4C4"/>
<rect x="72" width="9" height="9" fill="#C4C4C4"/>
<rect y="36" width="9" height="9" fill="#C4C4C4"/>
<rect x="72" y="36" width="9" height="9" fill="#C4C4C4"/>
<rect y="18" width="9" height="9" fill="#C4C4C4"/>
<rect x="72" y="18" width="9" height="9" fill="#C4C4C4"/>
<rect y="54" width="9" height="9" fill="#C4C4C4"/>
<rect x="72" y="54" width="9" height="9" fill="#C4C4C4"/>
<rect x="18" width="9" height="9" fill="#C4C4C4"/>
<rect x="90" width="9" height="9" fill="#C4C4C4"/>
<rect x="18" y="36" width="9" height="9" fill="#C4C4C4"/>
<rect x="90" y="36" width="9" height="9" fill="#C4C4C4"/>
<rect x="18" y="18" width="9" height="9" fill="#C4C4C4"/>
<rect x="90" y="18" width="9" height="9" fill="#C4C4C4"/>
<rect x="18" y="54" width="9" height="9" fill="#C4C4C4"/>
<rect x="90" y="54" width="9" height="9" fill="#C4C4C4"/>
<rect x="36" width="9" height="9" fill="#C4C4C4"/>
<rect x="108" width="9" height="9" fill="#C4C4C4"/>
<rect x="36" y="36" width="9" height="9" fill="#C4C4C4"/>
<rect x="108" y="36" width="9" height="9" fill="#C4C4C4"/>
<rect x="36" y="18" width="9" height="9" fill="#C4C4C4"/>
<rect x="108" y="18" width="9" height="9" fill="#C4C4C4"/>
<rect x="36" y="54" width="9" height="9" fill="#C4C4C4"/>
<rect x="108" y="54" width="9" height="9" fill="#C4C4C4"/>
<rect x="54" width="9" height="9" fill="#C4C4C4"/>
<rect x="126" width="9" height="9" fill="#C4C4C4"/>
<rect x="54" y="36" width="9" height="9" fill="#C4C4C4"/>
<rect x="126" y="36" width="9" height="9" fill="#C4C4C4"/>
<rect x="54" y="18" width="9" height="9" fill="#C4C4C4"/>
<rect x="126" y="18" width="9" height="9" fill="#C4C4C4"/>
<rect x="54" y="54" width="9" height="9" fill="#C4C4C4"/>
<rect x="126" y="54" width="9" height="9" fill="#C4C4C4"/>
<rect x="9" width="9" height="9" fill="white"/>
<rect x="81" width="9" height="9" fill="white"/>
<rect x="9" y="36" width="9" height="9" fill="white"/>
<rect x="81" y="36" width="9" height="9" fill="white"/>
<rect x="9" y="18" width="9" height="9" fill="white"/>
<rect x="81" y="18" width="9" height="9" fill="white"/>
<rect x="9" y="54" width="9" height="9" fill="white"/>
<rect x="81" y="54" width="9" height="9" fill="white"/>
<rect x="27" width="9" height="9" fill="white"/>
<rect x="99" width="9" height="9" fill="white"/>
<rect x="27" y="36" width="9" height="9" fill="white"/>
<rect x="99" y="36" width="9" height="9" fill="white"/>
<rect x="27" y="18" width="9" height="9" fill="white"/>
<rect x="99" y="18" width="9" height="9" fill="white"/>
<rect x="27" y="54" width="9" height="9" fill="white"/>
<rect x="99" y="54" width="9" height="9" fill="white"/>
<rect x="45" width="9" height="9" fill="white"/>
<rect x="117" width="9" height="9" fill="white"/>
<rect x="45" y="36" width="9" height="9" fill="white"/>
<rect x="117" y="36" width="9" height="9" fill="white"/>
<rect x="45" y="18" width="9" height="9" fill="white"/>
<rect x="117" y="18" width="9" height="9" fill="white"/>
<rect x="45" y="54" width="9" height="9" fill="white"/>
<rect x="117" y="54" width="9" height="9" fill="white"/>
<rect x="63" width="9" height="9" fill="white"/>
<rect x="135" width="9" height="9" fill="white"/>
<rect x="63" y="36" width="9" height="9" fill="white"/>
<rect x="135" y="36" width="9" height="9" fill="white"/>
<rect x="63" y="18" width="9" height="9" fill="white"/>
<rect x="135" y="18" width="9" height="9" fill="white"/>
<rect x="63" y="54" width="9" height="9" fill="white"/>
<rect x="135" y="54" width="9" height="9" fill="white"/>
<rect y="9" width="9" height="9" fill="white"/>
<rect x="72" y="9" width="9" height="9" fill="white"/>
<rect y="45" width="9" height="9" fill="white"/>
<rect x="72" y="45" width="9" height="9" fill="white"/>
<rect y="27" width="9" height="9" fill="white"/>
<rect x="72" y="27" width="9" height="9" fill="white"/>
<rect y="63" width="9" height="9" fill="white"/>
<rect x="72" y="63" width="9" height="9" fill="white"/>
<rect x="18" y="9" width="9" height="9" fill="white"/>
<rect x="90" y="9" width="9" height="9" fill="white"/>
<rect x="18" y="45" width="9" height="9" fill="white"/>
<rect x="90" y="45" width="9" height="9" fill="white"/>
<rect x="18" y="27" width="9" height="9" fill="white"/>
<rect x="90" y="27" width="9" height="9" fill="white"/>
<rect x="18" y="63" width="9" height="9" fill="white"/>
<rect x="90" y="63" width="9" height="9" fill="white"/>
<rect x="36" y="9" width="9" height="9" fill="white"/>
<rect x="108" y="9" width="9" height="9" fill="white"/>
<rect x="36" y="45" width="9" height="9" fill="white"/>
<rect x="108" y="45" width="9" height="9" fill="white"/>
<rect x="36" y="27" width="9" height="9" fill="white"/>
<rect x="108" y="27" width="9" height="9" fill="white"/>
<rect x="36" y="63" width="9" height="9" fill="white"/>
<rect x="108" y="63" width="9" height="9" fill="white"/>
<rect x="54" y="9" width="9" height="9" fill="white"/>
<rect x="126" y="9" width="9" height="9" fill="white"/>
<rect x="54" y="45" width="9" height="9" fill="white"/>
<rect x="126" y="45" width="9" height="9" fill="white"/>
<rect x="54" y="27" width="9" height="9" fill="white"/>
<rect x="126" y="27" width="9" height="9" fill="white"/>
<rect x="54" y="63" width="9" height="9" fill="white"/>
<rect x="126" y="63" width="9" height="9" fill="white"/>
<rect x="9" y="9" width="9" height="9" fill="#C4C4C4"/>
<rect x="81" y="9" width="9" height="9" fill="#C4C4C4"/>
<rect x="9" y="45" width="9" height="9" fill="#C4C4C4"/>
<rect x="81" y="45" width="9" height="9" fill="#C4C4C4"/>
<rect x="9" y="27" width="9" height="9" fill="#C4C4C4"/>
<rect x="81" y="27" width="9" height="9" fill="#C4C4C4"/>
<rect x="9" y="63" width="9" height="9" fill="#C4C4C4"/>
<rect x="81" y="63" width="9" height="9" fill="#C4C4C4"/>
<rect x="27" y="9" width="9" height="9" fill="#C4C4C4"/>
<rect x="99" y="9" width="9" height="9" fill="#C4C4C4"/>
<rect x="27" y="45" width="9" height="9" fill="#C4C4C4"/>
<rect x="99" y="45" width="9" height="9" fill="#C4C4C4"/>
<rect x="27" y="27" width="9" height="9" fill="#C4C4C4"/>
<rect x="99" y="27" width="9" height="9" fill="#C4C4C4"/>
<rect x="27" y="63" width="9" height="9" fill="#C4C4C4"/>
<rect x="99" y="63" width="9" height="9" fill="#C4C4C4"/>
<rect x="45" y="9" width="9" height="9" fill="#C4C4C4"/>
<rect x="117" y="9" width="9" height="9" fill="#C4C4C4"/>
<rect x="45" y="45" width="9" height="9" fill="#C4C4C4"/>
<rect x="117" y="45" width="9" height="9" fill="#C4C4C4"/>
<rect x="45" y="27" width="9" height="9" fill="#C4C4C4"/>
<rect x="117" y="27" width="9" height="9" fill="#C4C4C4"/>
<rect x="45" y="63" width="9" height="9" fill="#C4C4C4"/>
<rect x="117" y="63" width="9" height="9" fill="#C4C4C4"/>
<rect x="63" y="9" width="9" height="9" fill="#C4C4C4"/>
<rect x="135" y="9" width="9" height="9" fill="#C4C4C4"/>
<rect x="63" y="45" width="9" height="9" fill="#C4C4C4"/>
<rect x="135" y="45" width="9" height="9" fill="#C4C4C4"/>
<rect x="63" y="27" width="9" height="9" fill="#C4C4C4"/>
<rect x="135" y="27" width="9" height="9" fill="#C4C4C4"/>
<rect x="63" y="63" width="9" height="9" fill="#C4C4C4"/>
<rect x="135" y="63" width="9" height="9" fill="#C4C4C4"/>
<rect x="288" width="9" height="9" fill="#C4C4C4"/>
<rect x="360" width="9" height="9" fill="#C4C4C4"/>
<rect x="288" y="36" width="9" height="9" fill="#C4C4C4"/>
<rect x="360" y="36" width="9" height="9" fill="#C4C4C4"/>
<rect x="288" y="18" width="9" height="9" fill="#C4C4C4"/>
<rect x="360" y="18" width="9" height="9" fill="#C4C4C4"/>
<rect x="288" y="54" width="9" height="9" fill="#C4C4C4"/>
<rect x="360" y="54" width="9" height="9" fill="#C4C4C4"/>
<rect x="306" width="9" height="9" fill="#C4C4C4"/>
<rect x="378" width="9" height="9" fill="#C4C4C4"/>
<rect x="306" y="36" width="9" height="9" fill="#C4C4C4"/>
<rect x="378" y="36" width="9" height="9" fill="#C4C4C4"/>
<rect x="306" y="18" width="9" height="9" fill="#C4C4C4"/>
<rect x="378" y="18" width="9" height="9" fill="#C4C4C4"/>
<rect x="306" y="54" width="9" height="9" fill="#C4C4C4"/>
<rect x="378" y="54" width="9" height="9" fill="#C4C4C4"/>
<rect x="324" width="9" height="9" fill="#C4C4C4"/>
<rect x="396" width="9" height="9" fill="#C4C4C4"/>
<rect x="324" y="36" width="9" height="9" fill="#C4C4C4"/>
<rect x="396" y="36" width="9" height="9" fill="#C4C4C4"/>
<rect x="324" y="18" width="9" height="9" fill="#C4C4C4"/>
<rect x="396" y="18" width="9" height="9" fill="#C4C4C4"/>
<rect x="324" y="54" width="9" height="9" fill="#C4C4C4"/>
<rect x="396" y="54" width="9" height="9" fill="#C4C4C4"/>
<rect x="342" width="9" height="9" fill="#C4C4C4"/>
<rect x="414" width="9" height="9" fill="#C4C4C4"/>
<rect x="342" y="36" width="9" height="9" fill="#C4C4C4"/>
<rect x="414" y="36" width="9" height="9" fill="#C4C4C4"/>
<rect x="342" y="18" width="9" height="9" fill="#C4C4C4"/>
<rect x="414" y="18" width="9" height="9" fill="#C4C4C4"/>
<rect x="342" y="54" width="9" height="9" fill="#C4C4C4"/>
<rect x="414" y="54" width="9" height="9" fill="#C4C4C4"/>
<rect x="297" width="9" height="9" fill="white"/>
<rect x="369" width="9" height="9" fill="white"/>
<rect x="297" y="36" width="9" height="9" fill="white"/>
<rect x="369" y="36" width="9" height="9" fill="white"/>
<rect x="297" y="18" width="9" height="9" fill="white"/>
<rect x="369" y="18" width="9" height="9" fill="white"/>
<rect x="297" y="54" width="9" height="9" fill="white"/>
<rect x="369" y="54" width="9" height="9" fill="white"/>
<rect x="315" width="9" height="9" fill="white"/>
<rect x="387" width="9" height="9" fill="white"/>
<rect x="315" y="36" width="9" height="9" fill="white"/>
<rect x="387" y="36" width="9" height="9" fill="white"/>
<rect x="315" y="18" width="9" height="9" fill="white"/>
<rect x="387" y="18" width="9" height="9" fill="white"/>
<rect x="315" y="54" width="9" height="9" fill="white"/>
<rect x="387" y="54" width="9" height="9" fill="white"/>
<rect x="333" width="9" height="9" fill="white"/>
<rect x="405" width="9" height="9" fill="white"/>
<rect x="333" y="36" width="9" height="9" fill="white"/>
<rect x="405" y="36" width="9" height="9" fill="white"/>
<rect x="333" y="18" width="9" height="9" fill="white"/>
<rect x="405" y="18" width="9" height="9" fill="white"/>
<rect x="333" y="54" width="9" height="9" fill="white"/>
<rect x="405" y="54" width="9" height="9" fill="white"/>
<rect x="351" width="9" height="9" fill="white"/>
<rect x="423" width="9" height="9" fill="white"/>
<rect x="351" y="36" width="9" height="9" fill="white"/>
<rect x="423" y="36" width="9" height="9" fill="white"/>
<rect x="351" y="18" width="9" height="9" fill="white"/>
<rect x="423" y="18" width="9" height="9" fill="white"/>
<rect x="351" y="54" width="9" height="9" fill="white"/>
<rect x="423" y="54" width="9" height="9" fill="white"/>
<rect x="288" y="9" width="9" height="9" fill="white"/>
<rect x="360" y="9" width="9" height="9" fill="white"/>
<rect x="288" y="45" width="9" height="9" fill="white"/>
<rect x="360" y="45" width="9" height="9" fill="white"/>
<rect x="288" y="27" width="9" height="9" fill="white"/>
<rect x="360" y="27" width="9" height="9" fill="white"/>
<rect x="288" y="63" width="9" height="9" fill="white"/>
<rect x="360" y="63" width="9" height="9" fill="white"/>
<rect x="306" y="9" width="9" height="9" fill="white"/>
<rect x="378" y="9" width="9" height="9" fill="white"/>
<rect x="306" y="45" width="9" height="9" fill="white"/>
<rect x="378" y="45" width="9" height="9" fill="white"/>
<rect x="306" y="27" width="9" height="9" fill="white"/>
<rect x="378" y="27" width="9" height="9" fill="white"/>
<rect x="306" y="63" width="9" height="9" fill="white"/>
<rect x="378" y="63" width="9" height="9" fill="white"/>
<rect x="324" y="9" width="9" height="9" fill="white"/>
<rect x="396" y="9" width="9" height="9" fill="white"/>
<rect x="324" y="45" width="9" height="9" fill="white"/>
<rect x="396" y="45" width="9" height="9" fill="white"/>
<rect x="324" y="27" width="9" height="9" fill="white"/>
<rect x="396" y="27" width="9" height="9" fill="white"/>
<rect x="324" y="63" width="9" height="9" fill="white"/>
<rect x="396" y="63" width="9" height="9" fill="white"/>
<rect x="342" y="9" width="9" height="9" fill="white"/>
<rect x="414" y="9" width="9" height="9" fill="white"/>
<rect x="342" y="45" width="9" height="9" fill="white"/>
<rect x="414" y="45" width="9" height="9" fill="white"/>
<rect x="342" y="27" width="9" height="9" fill="white"/>
<rect x="414" y="27" width="9" height="9" fill="white"/>
<rect x="342" y="63" width="9" height="9" fill="white"/>
<rect x="414" y="63" width="9" height="9" fill="white"/>
<rect x="297" y="9" width="9" height="9" fill="#C4C4C4"/>
<rect x="369" y="9" width="9" height="9" fill="#C4C4C4"/>
<rect x="297" y="45" width="9" height="9" fill="#C4C4C4"/>
<rect x="369" y="45" width="9" height="9" fill="#C4C4C4"/>
<rect x="297" y="27" width="9" height="9" fill="#C4C4C4"/>
<rect x="369" y="27" width="9" height="9" fill="#C4C4C4"/>
<rect x="297" y="63" width="9" height="9" fill="#C4C4C4"/>
<rect x="369" y="63" width="9" height="9" fill="#C4C4C4"/>
<rect x="315" y="9" width="9" height="9" fill="#C4C4C4"/>
<rect x="387" y="9" width="9" height="9" fill="#C4C4C4"/>
<rect x="315" y="45" width="9" height="9" fill="#C4C4C4"/>
<rect x="387" y="45" width="9" height="9" fill="#C4C4C4"/>
<rect x="315" y="27" width="9" height="9" fill="#C4C4C4"/>
<rect x="387" y="27" width="9" height="9" fill="#C4C4C4"/>
<rect x="315" y="63" width="9" height="9" fill="#C4C4C4"/>
<rect x="387" y="63" width="9" height="9" fill="#C4C4C4"/>
<rect x="333" y="9" width="9" height="9" fill="#C4C4C4"/>
<rect x="405" y="9" width="9" height="9" fill="#C4C4C4"/>
<rect x="333" y="45" width="9" height="9" fill="#C4C4C4"/>
<rect x="405" y="45" width="9" height="9" fill="#C4C4C4"/>
<rect x="333" y="27" width="9" height="9" fill="#C4C4C4"/>
<rect x="405" y="27" width="9" height="9" fill="#C4C4C4"/>
<rect x="333" y="63" width="9" height="9" fill="#C4C4C4"/>
<rect x="405" y="63" width="9" height="9" fill="#C4C4C4"/>
<rect x="351" y="9" width="9" height="9" fill="#C4C4C4"/>
<rect x="423" y="9" width="9" height="9" fill="#C4C4C4"/>
<rect x="351" y="45" width="9" height="9" fill="#C4C4C4"/>
<rect x="423" y="45" width="9" height="9" fill="#C4C4C4"/>
<rect x="351" y="27" width="9" height="9" fill="#C4C4C4"/>
<rect x="423" y="27" width="9" height="9" fill="#C4C4C4"/>
<rect x="351" y="63" width="9" height="9" fill="#C4C4C4"/>
<rect x="423" y="63" width="9" height="9" fill="#C4C4C4"/>
</svg>
