<svg id="Layer_1" data-name="Layer 1" xmlns="http://www.w3.org/2000/svg" xmlns:xlink="http://www.w3.org/1999/xlink" viewBox="0 0 212.38 58.21"><defs><style>.cls-1{fill:#fff;}.cls-14,.cls-15,.cls-16,.cls-17,.cls-18,.cls-2,.cls-3,.cls-4,.cls-5{fill-rule:evenodd;}.cls-3{fill:url(#linear-gradient);}.cls-4{fill:#160303;}.cls-5{fill:url(#linear-gradient-2);}.cls-6{mask:url(#mask);}.cls-20,.cls-7{fill:none;}.cls-20,.cls-21,.cls-7{stroke:#160303;}.cls-7{stroke-width:1.45px;}.cls-8{fill:url(#linear-gradient-3);}.cls-9{fill:url(#linear-gradient-4);}.cls-10{fill:url(#linear-gradient-5);}.cls-11{fill:url(#linear-gradient-6);}.cls-12{fill:url(#linear-gradient-7);}.cls-13{fill:url(#linear-gradient-8);}.cls-14{fill:url(#linear-gradient-9);}.cls-15{fill:url(#linear-gradient-10);}.cls-16{fill:url(#linear-gradient-11);}.cls-17{fill:url(#linear-gradient-12);}.cls-18{fill:url(#linear-gradient-13);}.cls-19{fill:url(#radial-gradient);}.cls-20,.cls-21{stroke-width:0.36px;}.cls-21{fill:#c4c4c4;}</style><linearGradient id="linear-gradient" x1="75.94" y1="51.01" x2="75.94" y2="23.96" gradientTransform="matrix(1, 0, 0, -1, 0, 76)" gradientUnits="userSpaceOnUse"><stop offset="0" stop-color="#fec911"/><stop offset="1" stop-color="#fce72d"/></linearGradient><linearGradient id="linear-gradient-2" x1="76.08" y1="37.54" x2="76.08" y2="30.01" xlink:href="#linear-gradient"/><mask id="mask" x="70.38" y="29.38" width="10" height="10" maskUnits="userSpaceOnUse"><g transform="translate(-0.94 -8.08)"><g id="c"><path class="cls-1" d="M71.32,37.46h10v10h-10Z"/><path class="cls-2" d="M75.62,40.33V38.92a.46.46,0,0,1,.46-.46.47.47,0,0,1,.46.46v1.59h.06l.8-1.38a.46.46,0,1,1,.79.46l-.76,1.33h0v0l0,0h0l1.25-.72a.46.46,0,0,1,.63.17.47.47,0,0,1-.17.63L78,41.71h0v0h1.36a.47.47,0,0,1,0,.93H77.8l0,0v0h0l1.38.79a.47.47,0,0,1,.17.63.46.46,0,0,1-.63.17l-1.18-.67h0s0,0,0,0v0h0v0l.67,1.15a.47.47,0,0,1-.17.63.46.46,0,0,1-.63-.17L76.6,44h-.06v1.54a.47.47,0,0,1-.46.46.46.46,0,0,1-.46-.46V44.17h-.05v0l-.67,1.15a.46.46,0,0,1-.8-.46l.7-1.21h0l0,0h0l-1.29.74a.46.46,0,0,1-.46-.8l1.38-.79h0v0h-1.6a.47.47,0,0,1,0-.93h1.37s0,0,0,0,0,0,0,0h0L73,41a.46.46,0,1,1,.46-.8l1.36.79h0a0,0,0,0,1,0,0h0v0l-.79-1.37a.45.45,0,0,1,.17-.63.46.46,0,0,1,.63.16l.69,1.2v0h.05Z"/></g></g></mask><linearGradient id="linear-gradient-3" x1="56.71" y1="58.18" x2="56.71" y2="24.07" gradientTransform="matrix(1, 0, 0, -1, 0, 76)" gradientUnits="userSpaceOnUse"><stop offset="0" stop-color="#fce82e"/><stop offset="1" stop-color="#fec911"/></linearGradient><linearGradient id="linear-gradient-4" x1="105.77" y1="58.18" x2="105.77" y2="24.07" xlink:href="#linear-gradient-3"/><linearGradient id="linear-gradient-5" x1="128.23" y1="58.18" x2="128.23" y2="24.07" xlink:href="#linear-gradient-3"/><linearGradient id="linear-gradient-6" x1="149.44" y1="58.18" x2="149.44" y2="24.07" xlink:href="#linear-gradient-3"/><linearGradient id="linear-gradient-7" x1="179.16" y1="58.18" x2="179.16" y2="24.07" xlink:href="#linear-gradient-3"/><linearGradient id="linear-gradient-8" x1="202.11" y1="58.18" x2="202.11" y2="24.07" xlink:href="#linear-gradient-3"/><linearGradient id="linear-gradient-9" x1="20.28" y1="58.58" x2="173.71" y2="38.72" gradientTransform="matrix(1, 0, 0, -1, 0, 76)" gradientUnits="userSpaceOnUse"><stop offset="0"/><stop offset="1" stop-color="#320808"/></linearGradient><linearGradient id="linear-gradient-10" x1="44.72" y1="29.83" x2="121.59" y2="39.78" gradientTransform="matrix(1, 0, 0, 1, 0, 0)" xlink:href="#linear-gradient-9"/><linearGradient id="linear-gradient-11" x1="98.1" y1="38.88" x2="113.44" y2="40.86" gradientTransform="matrix(1, 0, 0, 1, 0, 0)" xlink:href="#linear-gradient-9"/><linearGradient id="linear-gradient-12" x1="19.55" y1="52.94" x2="172.99" y2="33.08" xlink:href="#linear-gradient-9"/><linearGradient id="linear-gradient-13" x1="0.94" y1="39.45" x2="43.12" y2="39.45" gradientTransform="matrix(1, 0, 0, 1, 0, 0)" xlink:href="#linear-gradient-9"/><radialGradient id="radial-gradient" cx="-859.4" cy="610.51" r="1" gradientTransform="matrix(-11.52, 14.5, 23.58, 18.74, -24274.32, 1058.97)" gradientUnits="userSpaceOnUse"><stop offset="0" stop-color="#020069"/><stop offset="0.25" stop-color="#000006"/><stop offset="0.25" stop-color="#031b4e"/><stop offset="0.5" stop-color="#031b4e"/><stop offset="0.5" stop-color="#053595"/><stop offset="0.75" stop-color="#053595"/><stop offset="0.75" stop-color="#0750dd"/><stop offset="1" stop-color="#0750dd"/></radialGradient></defs><path class="cls-3" d="M66,47.82H85.87l-9.93-17.2Zm7.5-21.43a2.81,2.81,0,0,1,4.86,0L90.75,47.83A2.81,2.81,0,0,1,88.32,52H63.56a2.81,2.81,0,0,1-2.43-4.21Z" transform="translate(-0.94 -8.08)"/><path class="cls-4" d="M66,47.82H85.87l-9.93-17.2Zm9.93-11.41L71,44.92h9.82Z" transform="translate(-0.94 -8.08)"/><path class="cls-5" d="M75.62,40.33V38.92a.46.46,0,0,1,.46-.46.47.47,0,0,1,.46.46v1.59h.06l.8-1.38a.46.46,0,1,1,.79.46l-.76,1.33h0v0l0,0h0l1.25-.72a.46.46,0,0,1,.63.17.47.47,0,0,1-.17.63L78,41.71h0v0h1.36a.47.47,0,0,1,0,.93H77.8l0,0v0h0l1.38.79a.47.47,0,0,1,.17.63.46.46,0,0,1-.63.17l-1.18-.67h0s0,0,0,0v0h0v0l.67,1.15a.47.47,0,0,1-.17.63.46.46,0,0,1-.63-.17L76.6,44h-.06v1.54a.47.47,0,0,1-.46.46.46.46,0,0,1-.46-.46V44.17h-.05v0l-.67,1.15a.46.46,0,0,1-.8-.46l.7-1.21h0l0,0h0l-1.29.74a.46.46,0,0,1-.46-.8l1.38-.79h0v0h-1.6a.47.47,0,0,1,0-.93h1.37s0,0,0,0,0,0,0,0h0L73,41a.46.46,0,1,1,.46-.8l1.36.79h0a0,0,0,0,1,0,0h0v0l-.79-1.37a.45.45,0,0,1,.17-.63.46.46,0,0,1,.63.16l.69,1.2v0h.05Z" transform="translate(-0.94 -8.08)"/><g class="cls-6"><path class="cls-7" d="M75.62,40.33V38.92a.46.46,0,0,1,.46-.46.47.47,0,0,1,.46.46v1.59h.06l.8-1.38a.46.46,0,1,1,.79.46l-.76,1.33h0v0l0,0h0l1.25-.72a.46.46,0,0,1,.63.17.47.47,0,0,1-.17.63L78,41.71h0v0h1.36a.47.47,0,0,1,0,.93H77.8l0,0v0h0l1.38.79a.47.47,0,0,1,.17.63.46.46,0,0,1-.63.17l-1.18-.67h0s0,0,0,0v0h0v0l.67,1.15a.47.47,0,0,1-.17.63.46.46,0,0,1-.63-.17L76.6,44h-.06v1.54a.47.47,0,0,1-.46.46.46.46,0,0,1-.46-.46V44.17h-.05v0l-.67,1.15a.46.46,0,0,1-.8-.46l.7-1.21h0l0,0h0l-1.29.74a.46.46,0,0,1-.46-.8l1.38-.79h0v0h-1.6a.47.47,0,0,1,0-.93h1.37s0,0,0,0,0,0,0,0h0L73,41a.46.46,0,1,1,.46-.8l1.36.79h0a0,0,0,0,1,0,0h0v0l-.79-1.37a.45.45,0,0,1,.17-.63.46.46,0,0,1,.63.16l.69,1.2v0h.05Z" transform="translate(-0.94 -8.08)"/></g><path class="cls-8" d="M50.6,51.76a1.92,1.92,0,0,1-2.18-2.17V30.16A1.92,1.92,0,0,1,50.6,28a1.92,1.92,0,0,1,2.17,2.17V31a9.26,9.26,0,0,1,3.17-2.39,9.87,9.87,0,0,1,4.13-.87,6.88,6.88,0,0,1,3.87.87,1.76,1.76,0,0,1,1,2,1.66,1.66,0,0,1-.87,1.21,2.56,2.56,0,0,1-1.52.09,12.29,12.29,0,0,0-5-.09A6.9,6.9,0,0,0,54,33.6a4.54,4.54,0,0,0-1.26,3.3V49.59a1.92,1.92,0,0,1-2.17,2.17Z" transform="translate(-0.94 -8.08)"/><path class="cls-9" d="M105.8,51.93a11.8,11.8,0,0,1-12-12.08,12.74,12.74,0,0,1,1.44-6.12,11.21,11.21,0,0,1,4-4.31,10.87,10.87,0,0,1,14.08,2.35V20a2.19,2.19,0,0,1,.61-1.61,2.26,2.26,0,0,1,1.61-.61,2.16,2.16,0,0,1,1.61.61,2.19,2.19,0,0,1,.61,1.61V39.85A12,12,0,0,1,116.14,46a11.7,11.7,0,0,1-4.26,4.35A11.91,11.91,0,0,1,105.8,51.93Zm0-3.91a7.5,7.5,0,0,0,4-1A7.71,7.71,0,0,0,112.49,44a8.69,8.69,0,0,0,1-4.18,8.52,8.52,0,0,0-1-4.17,7.49,7.49,0,0,0-2.74-2.87,7.34,7.34,0,0,0-4-1.08,7.5,7.5,0,0,0-4,1.08,7.82,7.82,0,0,0-2.78,2.87,8.52,8.52,0,0,0-1,4.17,8.69,8.69,0,0,0,1,4.18A8.05,8.05,0,0,0,101.84,47,7.66,7.66,0,0,0,105.8,48Z" transform="translate(-0.94 -8.08)"/><path class="cls-10" d="M128.23,51.76A2.1,2.1,0,0,1,126,49.54V30.21a2.15,2.15,0,0,1,.61-1.61,2.24,2.24,0,0,1,1.61-.61,2.1,2.1,0,0,1,2.21,2.22V49.54a2.24,2.24,0,0,1-.61,1.61A2.14,2.14,0,0,1,128.23,51.76Zm0-27.64a2.8,2.8,0,0,1-2.87-2.87,2.74,2.74,0,0,1,.82-2,2.83,2.83,0,0,1,2-.86,3,3,0,0,1,2.86,2.86,2.8,2.8,0,0,1-.87,2.05A2.7,2.7,0,0,1,128.23,24.12Z" transform="translate(-0.94 -8.08)"/><path class="cls-11" d="M148.6,51.93a10.61,10.61,0,0,1-5.7-1.56,11.62,11.62,0,0,1-4-4.3,13.06,13.06,0,0,1-1.44-6.17A12.13,12.13,0,0,1,139,33.73a12.22,12.22,0,0,1,16.51-4.31,11.52,11.52,0,0,1,4.26,4.31,12,12,0,0,1,1.61,6.17v9.69a2.2,2.2,0,0,1-.66,1.61,2.11,2.11,0,0,1-1.56.6,2.3,2.3,0,0,1-1.61-.6,2.32,2.32,0,0,1-.61-1.61V48a11.19,11.19,0,0,1-3.69,2.91,10.44,10.44,0,0,1-4.69,1Zm.86-3.91a7.51,7.51,0,0,0,4-1,7.74,7.74,0,0,0,2.74-2.91,8.8,8.8,0,0,0,1-4.17,8.64,8.64,0,0,0-1-4.18,7.46,7.46,0,0,0-2.74-2.91,7.35,7.35,0,0,0-4-1.08,7.49,7.49,0,0,0-4,1.08,7.78,7.78,0,0,0-2.78,2.91,8.53,8.53,0,0,0-1,4.18,8.68,8.68,0,0,0,1,4.17A8.09,8.09,0,0,0,145.51,47,7.65,7.65,0,0,0,149.46,48Z" transform="translate(-0.94 -8.08)"/><path class="cls-12" d="M170.23,51.8a2.3,2.3,0,0,1-1.61-.6,2.32,2.32,0,0,1-.61-1.61V30.21a2.19,2.19,0,0,1,.61-1.61,2.26,2.26,0,0,1,1.61-.61,2.16,2.16,0,0,1,1.61.61,2.19,2.19,0,0,1,.61,1.61v.47a9.91,9.91,0,0,1,3.26-2.13,11.45,11.45,0,0,1,9.47.53,9,9,0,0,1,3.74,3.73,12.35,12.35,0,0,1,1.39,6.09V49.59a2.2,2.2,0,0,1-.66,1.61,2.11,2.11,0,0,1-1.56.6,2.3,2.3,0,0,1-1.61-.6,2.32,2.32,0,0,1-.61-1.61V38.9c0-2.47-.66-4.26-2-5.39A7.11,7.11,0,0,0,179,31.77a7.34,7.34,0,0,0-3.3.74,6,6,0,0,0-2.34,2,4.72,4.72,0,0,0-.87,2.82V49.59a2.32,2.32,0,0,1-.61,1.61,2.2,2.2,0,0,1-1.61.6Z" transform="translate(-0.94 -8.08)"/><path class="cls-13" d="M206.28,51.76a7.18,7.18,0,0,1-3.91-1.09,7.9,7.9,0,0,1-2.74-3,9.21,9.21,0,0,1-1-4.3V32.6h-2a2.08,2.08,0,0,1-1.48-.53,1.68,1.68,0,0,1-.57-1.3,1.79,1.79,0,0,1,.57-1.39,2.07,2.07,0,0,1,1.48-.52h2V22.6a2.09,2.09,0,0,1,2.18-2.17A2.09,2.09,0,0,1,203,22.6v6.26h3.69a2.09,2.09,0,0,1,1.48.52,1.79,1.79,0,0,1,.57,1.39,1.68,1.68,0,0,1-.57,1.3,2.1,2.1,0,0,1-1.48.53H203V43.33a4.44,4.44,0,0,0,1,2.91,2.9,2.9,0,0,0,2.34,1.17h1.48a1.65,1.65,0,0,1,1.3.61,2.21,2.21,0,0,1,.57,1.57,1.94,1.94,0,0,1-.74,1.56,2.65,2.65,0,0,1-1.83.61Z" transform="translate(-0.94 -8.08)"/><path class="cls-14" d="M123.92,53.67l.09.09.09.09a6,6,0,0,0,4.13,1.6,5.85,5.85,0,0,0,4.21-1.69l.05,0,0,0a6,6,0,0,0,1.6-4.13v-6a16.12,16.12,0,0,0,1.51,4.29l0,0v0a15.45,15.45,0,0,0,5.25,5.64h0a14.78,14.78,0,0,0,13.95.7h0l.3-.15a6,6,0,0,0,4,1.45,5.84,5.84,0,0,0,5.51-3.74,5.79,5.79,0,0,0,1.22,2l.08.09.09.09a6,6,0,0,0,4.13,1.6,5.85,5.85,0,0,0,4.21-1.69l.05,0,0,0a6,6,0,0,0,1.6-4.12V37.33a1.06,1.06,0,0,1,.19-.68v0l0,0a2.38,2.38,0,0,1,1-.79,3.61,3.61,0,0,1,1.65-.35,3.48,3.48,0,0,1,2.47.8l0,0,0,0c.21.18.7.74.7,2.58V49.59a6,6,0,0,0,1.6,4.12l.08.09.1.09a6,6,0,0,0,4.12,1.6,5.84,5.84,0,0,0,5.9-5.9V38.9a19.34,19.34,0,0,0-.27-3.35,5.71,5.71,0,0,0,1.23.51v7.27a12.85,12.85,0,0,0,1.42,6,11.65,11.65,0,0,0,4,4.43h0l0,0a10.94,10.94,0,0,0,5.86,1.65h.78A6.37,6.37,0,0,0,211.28,54a5.62,5.62,0,0,0,2-4.37,5.89,5.89,0,0,0-1.51-4,5.3,5.3,0,0,0-4.05-1.84h-1a1.82,1.82,0,0,1,0-.4v-7h0a5.76,5.76,0,0,0,4-1.5,5.37,5.37,0,0,0,1.75-4,5.46,5.46,0,0,0-1.75-4.1,5.76,5.76,0,0,0-4-1.5h0V22.6a5.86,5.86,0,1,0-11.72,0v2.8a5.45,5.45,0,0,0-2.29,1.27,5.32,5.32,0,0,0-1.59,2.7,12.33,12.33,0,0,0-4.14-3.54,15.22,15.22,0,0,0-12.62-.69l-.57.25a6.15,6.15,0,0,0-7.63.51l-.05.05L166,26a5.88,5.88,0,0,0-1.68,4.22v4.62A15.6,15.6,0,0,0,163,31.88a15.08,15.08,0,0,0-5.58-5.63,15.25,15.25,0,0,0-7.95-2.12,15.55,15.55,0,0,0-13.61,7.73v0a15.22,15.22,0,0,0-1.71,4.52V30.21a5.84,5.84,0,0,0-1.55-4.07l.25-.24a6.45,6.45,0,0,0,1.95-4.65,6.66,6.66,0,0,0-6.55-6.55,6.45,6.45,0,0,0-4.65,1.95,6.38,6.38,0,0,0-1.91,4.6,6.56,6.56,0,0,0,1.84,4.59l.07.06.06.07.21.19a5.88,5.88,0,0,0-1.53,4.05V49.54a6,6,0,0,0,1.6,4.13Zm84.23-24.29a2.09,2.09,0,0,0-1.48-.52H203V22.6a2.09,2.09,0,0,0-2.17-2.17,2.09,2.09,0,0,0-2.18,2.17v6.26h-2a2.07,2.07,0,0,0-1.48.52,1.79,1.79,0,0,0-.57,1.39,1.68,1.68,0,0,0,.57,1.3,2.08,2.08,0,0,0,1.48.53h2V43.33a9.21,9.21,0,0,0,1,4.3,7.9,7.9,0,0,0,2.74,3,7.18,7.18,0,0,0,3.91,1.09h.78a2.65,2.65,0,0,0,1.83-.61,1.94,1.94,0,0,0,.74-1.56,2.21,2.21,0,0,0-.57-1.57,1.65,1.65,0,0,0-1.3-.61h-1.48a2.91,2.91,0,0,1-2.34-1.17,4.44,4.44,0,0,1-1-2.91V32.6h3.69a2.1,2.1,0,0,0,1.48-.53,1.68,1.68,0,0,0,.57-1.3,1.79,1.79,0,0,0-.57-1.39ZM157,49.59a2.32,2.32,0,0,0,.61,1.61,2.29,2.29,0,0,0,.92.52,3.1,3.1,0,0,0,.69.08,2.11,2.11,0,0,0,1.56-.6,2.2,2.2,0,0,0,.66-1.61V39.9a12,12,0,0,0-1.61-6.17,11.52,11.52,0,0,0-4.26-4.31,11.69,11.69,0,0,0-6.09-1.6A11.83,11.83,0,0,0,139,33.73a12.13,12.13,0,0,0-1.57,6.17,13.06,13.06,0,0,0,1.44,6.17,11.62,11.62,0,0,0,4,4.3,10.61,10.61,0,0,0,5.7,1.56,11.09,11.09,0,0,0,3.09-.42,10,10,0,0,0,1.6-.62l.13-.06a13.15,13.15,0,0,0,1.68-1l0,0,.2-.15A11.35,11.35,0,0,0,157,48v1.61Zm28.2-20.51a11.43,11.43,0,0,0-9.28-.6l-.09,0-.1,0a10.27,10.27,0,0,0-1.62.83,8.42,8.42,0,0,0-1.13.83c-.18.15-.35.31-.51.47v-.51A2.09,2.09,0,0,0,170.23,28l-.32,0a2.07,2.07,0,0,0-1.9,2.2V49.59a2.32,2.32,0,0,0,.61,1.61,2.3,2.3,0,0,0,1.61.6,2.2,2.2,0,0,0,1.61-.6,2.32,2.32,0,0,0,.61-1.61V37.33a5.09,5.09,0,0,1,.28-1.72,5,5,0,0,1,.58-1.1A5.78,5.78,0,0,1,174.79,33a6.25,6.25,0,0,1,.87-.52A7,7,0,0,1,177,32a7.8,7.8,0,0,1,2-.24,7.11,7.11,0,0,1,4.91,1.74c1.34,1.13,2,2.92,2,5.39V49.59a2.32,2.32,0,0,0,.61,1.61,2.3,2.3,0,0,0,1.61.6,2.11,2.11,0,0,0,1.56-.6,2.2,2.2,0,0,0,.66-1.61V38.9a12.24,12.24,0,0,0-1.4-6.09,8.89,8.89,0,0,0-3.73-3.73Zm-55-9.83a2.7,2.7,0,0,0-2-.86,2.83,2.83,0,0,0-2,.86,2.74,2.74,0,0,0-.82,2,2.8,2.8,0,0,0,2.87,2.87,2.74,2.74,0,0,0,2-.82,2.83,2.83,0,0,0,.86-2.05A2.7,2.7,0,0,0,130.23,19.25Zm-3.61,9.35a2.15,2.15,0,0,0-.61,1.61V49.54a2.1,2.1,0,0,0,2.22,2.22,2.14,2.14,0,0,0,1.6-.61,2.24,2.24,0,0,0,.61-1.61V30.21A2.1,2.1,0,0,0,128.23,28,2.24,2.24,0,0,0,126.62,28.6Z" transform="translate(-0.94 -8.08)"/><path class="cls-15" d="M119.75,15.82a5.87,5.87,0,0,0-4.22-1.69,6,6,0,0,0-4.12,1.6l0,0,0,0A5.85,5.85,0,0,0,109.63,20V24.9a14.3,14.3,0,0,0-4.7-.77,14.1,14.1,0,0,0-7.66,2.17A15,15,0,0,0,92,32h0a16.6,16.6,0,0,0-1.86,7.86c0,.39,0,.78,0,1.17L80.88,24.94a5.71,5.71,0,0,0-9.88,0l-2.43,4.2a4.83,4.83,0,0,0-.43-1.28A6,6,0,0,0,66,25.52,10.54,10.54,0,0,0,60.07,24a13.53,13.53,0,0,0-5.65,1.2h0l-.22.11A6.12,6.12,0,0,0,50.6,24.3a5.57,5.57,0,0,0-5.86,5.86V49.59a5.86,5.86,0,1,0,11.72,0V36.9a.94.94,0,0,1,.2-.72,3.35,3.35,0,0,1,1.67-.76,8.46,8.46,0,0,1,3.48.09h0A6.37,6.37,0,0,0,65,35.4l-6.34,11a5.7,5.7,0,0,0,4.94,8.55H88.32a5.68,5.68,0,0,0,5.6-4.63,15.84,15.84,0,0,0,3.86,3.23h0l0,0a15.74,15.74,0,0,0,8,2,15.54,15.54,0,0,0,7.93-2.06l0,0a15.8,15.8,0,0,0,7.66-13.69V20A5.88,5.88,0,0,0,119.75,15.82ZM64.94,30.6a1.66,1.66,0,0,1-.87,1.21,2.56,2.56,0,0,1-1.52.09,12.91,12.91,0,0,0-4.46-.19l-.54.1-.1,0h0a7.73,7.73,0,0,0-2.48,1,5.5,5.5,0,0,0-.91.75,4.47,4.47,0,0,0-1.26,3V49.59a1.92,1.92,0,0,1-2.17,2.17,1.92,1.92,0,0,1-2.18-2.17V30.16A1.91,1.91,0,0,1,50.51,28h.09a1.88,1.88,0,0,1,2.16,1.89,2.53,2.53,0,0,1,0,.28V31a9,9,0,0,1,.8-.83,9.54,9.54,0,0,1,2.37-1.56l.31-.14.53-.2.46-.14a10.13,10.13,0,0,1,2.83-.39,6.88,6.88,0,0,1,3.87.87A1.76,1.76,0,0,1,64.94,30.6ZM88.32,52H63.56a2.81,2.81,0,0,1-2.43-4.21L73.51,26.39a2.81,2.81,0,0,1,4.86,0L90.75,47.83A2.81,2.81,0,0,1,88.32,52Zm29.43-12.19A12,12,0,0,1,116.14,46a11.7,11.7,0,0,1-4.26,4.35,11.91,11.91,0,0,1-6.08,1.56,11.8,11.8,0,0,1-12-12.08,12.74,12.74,0,0,1,1.44-6.12,11.21,11.21,0,0,1,4-4.31,10.38,10.38,0,0,1,5.7-1.6,11.14,11.14,0,0,1,3,.41,11.32,11.32,0,0,1,1.67.65l0,0A10.64,10.64,0,0,1,111.45,30l0,0a10.4,10.4,0,0,1,1.81,1.76V20a2.19,2.19,0,0,1,.61-1.61,2.26,2.26,0,0,1,1.61-.61,2.16,2.16,0,0,1,1.61.61,2.19,2.19,0,0,1,.61,1.61Z" transform="translate(-0.94 -8.08)"/><path class="cls-16" d="M113.2,37.49a7.66,7.66,0,0,0-.71-1.81,7.82,7.82,0,0,0-1.55-2,7.48,7.48,0,0,0-1.19-.88,7.13,7.13,0,0,0-1.61-.74l0,0a8.18,8.18,0,0,0-2.29-.32,7.5,7.5,0,0,0-4,1.08,7.82,7.82,0,0,0-2.78,2.87,8.52,8.52,0,0,0-1,4.17,8.63,8.63,0,0,0,1,4.17,8,8,0,0,0,2.78,3,7.66,7.66,0,0,0,4,1,7.5,7.5,0,0,0,4-1,7.67,7.67,0,0,0,2.74-3,8.63,8.63,0,0,0,1-4.17A9.48,9.48,0,0,0,113.2,37.49Zm-4,4.8a4,4,0,0,1-1.41,1.54,3.9,3.9,0,0,1-2,.51,4,4,0,0,1-2-.52,4.3,4.3,0,0,1-1.45-1.56,5,5,0,0,1-.55-2.41,4.92,4.92,0,0,1,.53-2.37A4.16,4.16,0,0,1,103.74,36h0a3.77,3.77,0,0,1,2-.55,3.64,3.64,0,0,1,2,.53l0,0h0a3.71,3.71,0,0,1,1.4,1.48,4.81,4.81,0,0,1,.55,2.4A5.12,5.12,0,0,1,109.24,42.29Z" transform="translate(-0.94 -8.08)"/><path class="cls-17" d="M150.83,47.92a8.63,8.63,0,0,0,.88-.2h0a6.86,6.86,0,0,0,1.69-.73,7.2,7.2,0,0,0,1.23-.95,7.94,7.94,0,0,0,1.51-2,8.21,8.21,0,0,0,.66-1.66,9,9,0,0,0,.34-2.51,8.64,8.64,0,0,0-1-4.18,7.46,7.46,0,0,0-2.74-2.91,7.35,7.35,0,0,0-4-1.08,7.49,7.49,0,0,0-4,1.08,7.78,7.78,0,0,0-2.78,2.91,8.53,8.53,0,0,0-1,4.18,8.68,8.68,0,0,0,1,4.17A8.09,8.09,0,0,0,145.51,47a7.65,7.65,0,0,0,4,1A8.66,8.66,0,0,0,150.83,47.92Zm-3.41-4.1a4,4,0,0,0,2.05.52,3.9,3.9,0,0,0,2-.51,4.09,4.09,0,0,0,1.42-1.52,5,5,0,0,0,.55-2.41,4.76,4.76,0,0,0-.55-2.4v0A3.7,3.7,0,0,0,151.52,36l0,0,0,0a3.65,3.65,0,0,0-2-.53,3.73,3.73,0,0,0-2,.55h0A3.91,3.91,0,0,0,146,37.51a4.86,4.86,0,0,0-.54,2.39,5,5,0,0,0,.54,2.38,4.24,4.24,0,0,0,1.46,1.54Z" transform="translate(-0.94 -8.08)"/><path class="cls-18" d="M43.12,36.79a20.45,20.45,0,0,1-1.59,8v0l0,0A20.83,20.83,0,0,1,37,51.38l0,0,0,0a21.85,21.85,0,0,1-6.69,4.3h0A22.08,22.08,0,0,1,22,57.26a21.68,21.68,0,0,1-8.16-1.53h0A21.16,21.16,0,0,1,7.15,51.4,20.41,20.41,0,0,1,2.6,44.89a19.8,19.8,0,0,1-1.66-8.1,20.29,20.29,0,0,1,1.09-7,20.16,20.16,0,0,1,3.48-6l0,0a6.1,6.1,0,0,1,2.16-1.7,6.07,6.07,0,0,1,2.46-.5,5.51,5.51,0,0,1,4,1.74,5.82,5.82,0,0,1,1.64,3.81,5.92,5.92,0,0,1-1.4,4.09l0,0,0,0a9.14,9.14,0,0,0-1.53,2.38h0v0a8.05,8.05,0,0,0-.43,3,7.72,7.72,0,0,0,.7,3.28,9.4,9.4,0,0,0,2.05,2.86,9.65,9.65,0,0,0,3.08,1.9h0a9.84,9.84,0,0,0,3.76.7,10.51,10.51,0,0,0,3.85-.7,9.68,9.68,0,0,0,3.05-1.91,9.41,9.41,0,0,0,2-2.83,8.16,8.16,0,0,0,.67-3.31,7.86,7.86,0,0,0-.39-2.51c-.08-.26-.18-.53-.29-.8H29.09v2.31a6.07,6.07,0,0,1-1.47,4,5.6,5.6,0,0,1-8.44,0,6.07,6.07,0,0,1-1.47-4V27.67a5.86,5.86,0,0,1,5.95-5.91H34.05a5.82,5.82,0,0,1,2.14.41,5.39,5.39,0,0,1,2.22,1.53l0,0,0,.05A20.15,20.15,0,0,1,42,29.91V30A21,21,0,0,1,43.12,36.79Z" transform="translate(-0.94 -8.08)"/><path class="cls-19" d="M39.43,36.79a16.8,16.8,0,0,1-1.3,6.61,17.13,17.13,0,0,1-3.69,5.34,18,18,0,0,1-5.57,3.57A18.39,18.39,0,0,1,22,53.57a17.94,17.94,0,0,1-6.78-1.26,17.27,17.27,0,0,1-5.52-3.57A16.79,16.79,0,0,1,6,43.4a16.11,16.11,0,0,1-1.35-6.61,16.77,16.77,0,0,1,.87-5.73,16.56,16.56,0,0,1,2.87-4.87,2.34,2.34,0,0,1,.83-.69,2.27,2.27,0,0,1,1-.18,1.8,1.8,0,0,1,1.39.61,2.09,2.09,0,0,1,.61,1.43,2.25,2.25,0,0,1-.56,1.57,12.7,12.7,0,0,0-2.13,3.34,11.54,11.54,0,0,0-.74,4.52,11.49,11.49,0,0,0,1,4.83,13.13,13.13,0,0,0,2.87,4,13.49,13.49,0,0,0,4.26,2.65,13.8,13.8,0,0,0,5.13.95,14.26,14.26,0,0,0,5.21-.95,13.53,13.53,0,0,0,4.22-2.65,13.3,13.3,0,0,0,2.87-4,11.93,11.93,0,0,0,1-4.83,11.66,11.66,0,0,0-.56-3.65,14.06,14.06,0,0,0-1.61-3.34H25.4v6a2.35,2.35,0,0,1-.57,1.61,1.78,1.78,0,0,1-1.43.65A1.81,1.81,0,0,1,22,37.4a2.39,2.39,0,0,1-.56-1.61V27.67a2.12,2.12,0,0,1,.65-1.61,2.16,2.16,0,0,1,1.61-.61H34a2.26,2.26,0,0,1,.87.18,1.68,1.68,0,0,1,.74.52,16.26,16.26,0,0,1,2.87,5A17.46,17.46,0,0,1,39.43,36.79Z" transform="translate(-0.94 -8.08)"/><path class="cls-20" d="M69.89,64l68.85-53.28" transform="translate(-0.94 -8.08)"/><path class="cls-21" d="M68.18,63.74,70.47,62l1.77,2.29L70,66Zm68.9-53.63,2.29-1.78,1.77,2.29-2.29,1.78Z" transform="translate(-0.94 -8.08)"/></svg>