<svg width="10" height="10" viewBox="0 0 10 10" fill="none" xmlns="http://www.w3.org/2000/svg">
<path fill-rule="evenodd" clip-rule="evenodd" d="M2.44749 0.762742C1.9432 0.258448 1.12558 0.258448 0.621282 0.762742L0.438661 0.945363C-0.0656331 1.44966 -0.0656337 2.26728 0.43866 2.77157L1.86944 4.20235C2.37373 4.70665 2.37373 5.52427 1.86944 6.02856L0.378221 7.51978C-0.126073 8.02407 -0.126074 8.8417 0.378221 9.34599L0.560842 9.52861C1.06514 10.0329 1.88276 10.0329 2.38705 9.52861L3.87827 8.03739C4.38256 7.5331 5.20019 7.5331 5.70448 8.03739L7.19564 9.52855C7.69993 10.0328 8.51756 10.0328 9.02185 9.52855L9.20447 9.34593C9.70877 8.84164 9.70877 8.02402 9.20447 7.51972L7.71331 6.02856C7.20902 5.52427 7.20902 4.70665 7.71331 4.20235L9.14403 2.77163C9.64833 2.26734 9.64833 1.44972 9.14403 0.945421L8.96141 0.7628C8.45712 0.258506 7.63949 0.258506 7.1352 0.7628L5.70448 2.19352C5.20019 2.69781 4.38256 2.69781 3.87827 2.19352L2.44749 0.762742Z" fill="#0E0E0E"/>
</svg>
