<svg width="18" height="19" viewBox="0 0 18 19" fill="none" xmlns="http://www.w3.org/2000/svg">
<path fill-rule="evenodd" clip-rule="evenodd" d="M13.5462 14.4496C13.8907 14.4496 14.1699 14.1704 14.1699 13.8259V10.5831C14.1699 10.2386 13.8907 9.95941 13.5462 9.95941H10.3033C9.95886 9.95941 9.67964 10.2386 9.67964 10.5831V13.8259C9.67964 14.1704 9.95885 14.4496 10.3033 14.4496H13.5462ZM7.9334 14.4496C8.27783 14.4496 8.55705 14.1704 8.55705 13.8259V10.5831C8.55705 10.2386 8.27783 9.95941 7.9334 9.95941H4.69039C4.34595 9.95941 4.06673 10.2386 4.06673 10.5831V13.8259C4.06673 14.1704 4.34595 14.4496 4.69039 14.4496H7.9334ZM2.3205 14.4496C2.66493 14.4496 2.94415 14.1704 2.94415 13.8259V10.5831C2.94415 10.2386 2.66493 9.95941 2.3205 9.95941H1.26027C0.950273 9.95941 0.698975 9.70811 0.698975 9.39812C0.698975 9.08813 0.950273 8.83683 1.26027 8.83683H2.32049C2.66493 8.83683 2.94415 8.55761 2.94415 8.21317V4.97016C2.94415 4.62573 2.66493 4.34651 2.32049 4.34651H1.26027C0.950273 4.34651 0.698975 4.09521 0.698975 3.78522C0.698975 3.47522 0.950273 3.22393 1.26027 3.22393H2.32049C2.66493 3.22393 2.94415 2.94471 2.94415 2.60027V1.53996C2.94415 1.22997 3.19545 0.978676 3.50544 0.978676C3.81543 0.978676 4.06673 1.22997 4.06673 1.53996V2.60027C4.06673 2.94471 4.34595 3.22393 4.69039 3.22393H7.9334C8.27783 3.22393 8.55705 2.94471 8.55705 2.60027V1.53996C8.55705 1.22997 8.80835 0.978676 9.11834 0.978676C9.42834 0.978676 9.67963 1.22997 9.67963 1.53996V2.60027C9.67963 2.94471 9.95885 3.22393 10.3033 3.22393H13.5462C13.8907 3.22393 14.1699 2.94471 14.1699 2.60027V1.53996C14.1699 1.22997 14.4212 0.978676 14.7312 0.978676C15.0412 0.978676 15.2925 1.22997 15.2925 1.53996V2.60027C15.2925 2.94471 15.5717 3.22393 15.9161 3.22393H16.9764C17.2864 3.22393 17.5377 3.47522 17.5377 3.78522C17.5377 4.09521 17.2864 4.34651 16.9764 4.34651H15.9161C15.5717 4.34651 15.2925 4.62573 15.2925 4.97016L15.2925 8.21317C15.2925 8.55761 15.5717 8.83683 15.9161 8.83683H16.9764C17.2864 8.83683 17.5377 9.08813 17.5377 9.39812C17.5377 9.70811 17.2864 9.95941 16.9764 9.95941H15.9161C15.5717 9.95941 15.2925 10.2386 15.2925 10.5831V13.8259C15.2925 14.1704 15.5717 14.4496 15.9161 14.4496H16.9764C17.2864 14.4496 17.5377 14.7009 17.5377 15.0109C17.5377 15.3209 17.2864 15.5722 16.9764 15.5722H15.9161C15.5717 15.5722 15.2925 15.8514 15.2925 16.1958V17.2561C15.2925 17.5661 15.0412 17.8174 14.7312 17.8174C14.4212 17.8174 14.1699 17.5661 14.1699 17.2561V16.1958C14.1699 15.8514 13.8907 15.5722 13.5462 15.5722H10.3033C9.95886 15.5722 9.67964 15.8514 9.67964 16.1958V17.2561C9.67964 17.5661 9.42834 17.8174 9.11835 17.8174C8.80835 17.8174 8.55705 17.5661 8.55705 17.2561V16.1958C8.55705 15.8514 8.27783 15.5722 7.9334 15.5722H4.69039C4.34595 15.5722 4.06673 15.8514 4.06673 16.1958V17.2561C4.06673 17.5661 3.81543 17.8174 3.50544 17.8174C3.19545 17.8174 2.94415 17.5661 2.94415 17.2561V16.1958C2.94415 15.8514 2.66493 15.5722 2.3205 15.5722H1.26027C0.950273 15.5722 0.698975 15.3209 0.698975 15.0109C0.698975 14.7009 0.950273 14.4496 1.26026 14.4496H2.3205ZM4.06673 4.97016C4.06673 4.62573 4.34595 4.34651 4.69039 4.34651H7.9334C8.27783 4.34651 8.55705 4.62573 8.55705 4.97016V8.21317C8.55705 8.55761 8.27783 8.83683 7.9334 8.83683H4.69039C4.34595 8.83683 4.06673 8.55761 4.06673 8.21317V4.97016ZM14.1699 4.97016C14.1699 4.62573 13.8907 4.34651 13.5462 4.34651H10.3033C9.95885 4.34651 9.67963 4.62573 9.67963 4.97016V8.21317C9.67963 8.55761 9.95885 8.83683 10.3033 8.83683H13.5462C13.8907 8.83683 14.1699 8.55761 14.1699 8.21317L14.1699 4.97016Z" fill="black"/>
<path d="M14.1699 4.97016H14.4817H14.1699ZM8.55705 8.21317H8.24523H8.55705ZM8.55705 4.97016H8.86888H8.55705ZM15.2925 8.21317H14.9806H15.2925ZM8.55705 10.5831H8.24523H8.55705ZM14.4817 10.5831V13.8259H13.8581V10.5831H14.4817ZM10.3033 9.64758H13.5462V10.2712H10.3033V9.64758ZM9.36781 13.8259V10.5831H9.99146V13.8259H9.36781ZM13.5462 14.7614H10.3033V14.1378H13.5462V14.7614ZM8.86888 10.5831L8.86888 13.8259L8.24523 13.8259L8.24523 10.5831L8.86888 10.5831ZM4.69039 9.64758H7.9334V10.2712H4.69039V9.64758ZM3.7549 13.8259V10.5831H4.37856V13.8259H3.7549ZM7.9334 14.7614H4.69039V14.1378H7.9334V14.7614ZM3.25598 10.5831V13.8259H2.63232V10.5831H3.25598ZM1.26027 9.64758H2.3205V10.2712H1.26027V9.64758ZM2.32049 9.14866H1.26027V8.525H2.32049V9.14866ZM3.25598 4.97016V8.21317H2.63232V4.97016H3.25598ZM1.26027 4.03468H2.32049V4.65833H1.26027V4.03468ZM2.32049 3.53575H1.26027V2.9121H2.32049V3.53575ZM3.25598 1.53996V2.60027H2.63232V1.53996H3.25598ZM3.7549 2.60027V1.53996H4.37856V2.60027H3.7549ZM7.9334 3.53575H4.69039V2.9121H7.9334V3.53575ZM8.86888 1.53996V2.60027H8.24523V1.53996H8.86888ZM9.36781 2.60027V1.53996H9.99146V2.60027H9.36781ZM13.5462 3.53575H10.3033V2.9121H13.5462V3.53575ZM14.4817 1.53996V2.60027H13.8581V1.53996H14.4817ZM14.9806 2.60027V1.53996H15.6043V2.60027H14.9806ZM16.9764 3.53575H15.9161V2.9121H16.9764V3.53575ZM15.9161 4.03468H16.9764V4.65833H15.9161V4.03468ZM14.9806 8.21317L14.9806 4.97016L15.6043 4.97016V8.21317H14.9806ZM16.9764 9.14866H15.9161V8.525H16.9764V9.14866ZM15.9161 9.64758H16.9764V10.2712H15.9161V9.64758ZM14.9806 13.8259V10.5831H15.6043V13.8259H14.9806ZM16.9764 14.7614H15.9161V14.1378H16.9764V14.7614ZM15.9161 15.2603H16.9764V15.884H15.9161V15.2603ZM14.9806 17.2561V16.1958H15.6043V17.2561H14.9806ZM14.4817 16.1958V17.2561H13.8581V16.1958H14.4817ZM10.3033 15.2603H13.5462V15.884H10.3033V15.2603ZM9.36781 17.2561V16.1958H9.99146V17.2561H9.36781ZM8.86888 16.1958V17.2561H8.24523V16.1958H8.86888ZM4.69039 15.2603H7.9334V15.884H4.69039V15.2603ZM3.7549 17.2561V16.1958H4.37856V17.2561H3.7549ZM3.25598 16.1958V17.2561H2.63232V16.1958H3.25598ZM1.26027 15.2603H2.3205V15.884H1.26027V15.2603ZM2.3205 14.7614H1.26026V14.1378H2.3205V14.7614ZM4.69039 4.03468H7.9334V4.65833H4.69039V4.03468ZM8.86888 4.97016V8.21317H8.24523L8.24523 4.97016H8.86888ZM7.9334 9.14866H4.69039V8.525H7.9334V9.14866ZM3.7549 8.21317V4.97016H4.37856V8.21317H3.7549ZM10.3033 4.03468H13.5462V4.65833H10.3033V4.03468ZM9.36781 8.21317V4.97016H9.99146V8.21317H9.36781ZM13.5462 9.14866H10.3033V8.525H13.5462V9.14866ZM14.4817 4.97016V8.21317H13.8581L13.8581 4.97016H14.4817ZM13.5462 8.525C13.7184 8.525 13.8581 8.38539 13.8581 8.21317H14.4817C14.4817 8.72983 14.0629 9.14866 13.5462 9.14866V8.525ZM9.99146 8.21317C9.99146 8.38539 10.1311 8.525 10.3033 8.525V9.14866C9.78664 9.14866 9.36781 8.72983 9.36781 8.21317H9.99146ZM13.5462 4.03468C14.0629 4.03468 14.4817 4.45351 14.4817 4.97016H13.8581C13.8581 4.79794 13.7184 4.65833 13.5462 4.65833V4.03468ZM10.3033 4.65833C10.1311 4.65833 9.99146 4.79794 9.99146 4.97016H9.36781C9.36781 4.45351 9.78664 4.03468 10.3033 4.03468V4.65833ZM4.69039 9.14866C4.17373 9.14866 3.7549 8.72983 3.7549 8.21317H4.37856C4.37856 8.38539 4.51817 8.525 4.69039 8.525V9.14866ZM8.86888 8.21317C8.86888 8.72983 8.45005 9.14866 7.9334 9.14866V8.525C8.10562 8.525 8.24523 8.38539 8.24523 8.21317H8.86888ZM7.9334 4.03468C8.45005 4.03468 8.86888 4.45351 8.86888 4.97016H8.24523C8.24523 4.79794 8.10562 4.65833 7.9334 4.65833V4.03468ZM4.69039 4.65833C4.51817 4.65833 4.37856 4.79794 4.37856 4.97016H3.7549C3.7549 4.45351 4.17373 4.03468 4.69039 4.03468V4.65833ZM0.387147 15.0109C0.387147 14.5287 0.778055 14.1378 1.26026 14.1378V14.7614C1.12249 14.7614 1.0108 14.8731 1.0108 15.0109H0.387147ZM1.26027 15.884C0.778055 15.884 0.387147 15.4931 0.387147 15.0109H1.0108C1.0108 15.1486 1.12249 15.2603 1.26027 15.2603V15.884ZM2.63232 16.1958C2.63232 16.0236 2.49271 15.884 2.3205 15.884V15.2603C2.83715 15.2603 3.25598 15.6792 3.25598 16.1958H2.63232ZM3.50544 18.1292C3.02323 18.1292 2.63232 17.7383 2.63232 17.2561H3.25598C3.25598 17.3939 3.36767 17.5056 3.50544 17.5056V18.1292ZM4.37856 17.2561C4.37856 17.7383 3.98765 18.1292 3.50544 18.1292V17.5056C3.64322 17.5056 3.7549 17.3939 3.7549 17.2561H4.37856ZM4.69039 15.884C4.51817 15.884 4.37856 16.0236 4.37856 16.1958H3.7549C3.7549 15.6792 4.17373 15.2603 4.69039 15.2603V15.884ZM8.24523 16.1958C8.24523 16.0236 8.10562 15.884 7.9334 15.884V15.2603C8.45005 15.2603 8.86888 15.6792 8.86888 16.1958H8.24523ZM9.11835 18.1292C8.63614 18.1292 8.24523 17.7383 8.24523 17.2561H8.86888C8.86888 17.3939 8.98057 17.5056 9.11835 17.5056V18.1292ZM9.99146 17.2561C9.99146 17.7383 9.60056 18.1292 9.11835 18.1292V17.5056C9.25612 17.5056 9.36781 17.3939 9.36781 17.2561H9.99146ZM10.3033 15.884C10.1311 15.884 9.99146 16.0236 9.99146 16.1958H9.36781C9.36781 15.6792 9.78664 15.2603 10.3033 15.2603V15.884ZM13.8581 16.1958C13.8581 16.0236 13.7184 15.884 13.5462 15.884V15.2603C14.0629 15.2603 14.4817 15.6792 14.4817 16.1958H13.8581ZM14.7312 18.1292C14.249 18.1292 13.8581 17.7383 13.8581 17.2561H14.4817C14.4817 17.3939 14.5934 17.5056 14.7312 17.5056V18.1292ZM15.6043 17.2561C15.6043 17.7383 15.2134 18.1292 14.7312 18.1292V17.5056C14.8689 17.5056 14.9806 17.3939 14.9806 17.2561H15.6043ZM15.9161 15.884C15.7439 15.884 15.6043 16.0236 15.6043 16.1958H14.9806C14.9806 15.6792 15.3995 15.2603 15.9161 15.2603V15.884ZM17.8495 15.0109C17.8495 15.4931 17.4586 15.884 16.9764 15.884V15.2603C17.1142 15.2603 17.2259 15.1486 17.2259 15.0109H17.8495ZM16.9764 14.1378C17.4586 14.1378 17.8495 14.5287 17.8495 15.0109H17.2259C17.2259 14.8731 17.1142 14.7614 16.9764 14.7614V14.1378ZM15.6043 13.8259C15.6043 13.9981 15.7439 14.1378 15.9161 14.1378V14.7614C15.3995 14.7614 14.9806 14.3426 14.9806 13.8259H15.6043ZM15.9161 10.2712C15.7439 10.2712 15.6043 10.4108 15.6043 10.5831H14.9806C14.9806 10.0664 15.3995 9.64758 15.9161 9.64758V10.2712ZM17.8495 9.39812C17.8495 9.88033 17.4586 10.2712 16.9764 10.2712V9.64758C17.1142 9.64758 17.2259 9.53589 17.2259 9.39812H17.8495ZM16.9764 8.525C17.4586 8.525 17.8495 8.91591 17.8495 9.39812H17.2259C17.2259 9.26034 17.1142 9.14866 16.9764 9.14866V8.525ZM15.6043 8.21317C15.6043 8.38539 15.7439 8.525 15.9161 8.525V9.14866C15.3995 9.14866 14.9806 8.72983 14.9806 8.21317H15.6043ZM15.9161 4.65833C15.7439 4.65833 15.6043 4.79794 15.6043 4.97016L14.9806 4.97016C14.9806 4.45351 15.3995 4.03468 15.9161 4.03468V4.65833ZM17.8495 3.78522C17.8495 4.26743 17.4586 4.65833 16.9764 4.65833V4.03468C17.1142 4.03468 17.2259 3.92299 17.2259 3.78522H17.8495ZM16.9764 2.9121C17.4586 2.9121 17.8495 3.30301 17.8495 3.78522H17.2259C17.2259 3.64744 17.1142 3.53575 16.9764 3.53575V2.9121ZM15.6043 2.60027C15.6043 2.77249 15.7439 2.9121 15.9161 2.9121V3.53575C15.3995 3.53575 14.9806 3.11692 14.9806 2.60027H15.6043ZM14.7312 0.666847C15.2134 0.666847 15.6043 1.05775 15.6043 1.53996H14.9806C14.9806 1.40219 14.8689 1.2905 14.7312 1.2905V0.666847ZM13.8581 1.53996C13.8581 1.05776 14.249 0.666847 14.7312 0.666847V1.2905C14.5934 1.2905 14.4817 1.40219 14.4817 1.53996H13.8581ZM13.5462 2.9121C13.7184 2.9121 13.8581 2.77249 13.8581 2.60027H14.4817C14.4817 3.11692 14.0629 3.53575 13.5462 3.53575V2.9121ZM9.99146 2.60027C9.99146 2.77249 10.1311 2.9121 10.3033 2.9121V3.53575C9.78664 3.53575 9.36781 3.11692 9.36781 2.60027H9.99146ZM9.11834 0.666847C9.60055 0.666847 9.99146 1.05775 9.99146 1.53996H9.36781C9.36781 1.40219 9.25612 1.2905 9.11834 1.2905V0.666847ZM8.24523 1.53996C8.24523 1.05776 8.63613 0.666847 9.11834 0.666847V1.2905C8.98057 1.2905 8.86888 1.40219 8.86888 1.53996H8.24523ZM7.9334 2.9121C8.10562 2.9121 8.24523 2.77249 8.24523 2.60027H8.86888C8.86888 3.11692 8.45005 3.53575 7.9334 3.53575V2.9121ZM4.37856 2.60027C4.37856 2.77249 4.51817 2.9121 4.69039 2.9121V3.53575C4.17373 3.53575 3.7549 3.11692 3.7549 2.60027H4.37856ZM3.50544 0.666847C3.98765 0.666847 4.37856 1.05775 4.37856 1.53996H3.7549C3.7549 1.40219 3.64322 1.2905 3.50544 1.2905V0.666847ZM2.63232 1.53996C2.63232 1.05776 3.02323 0.666847 3.50544 0.666847V1.2905C3.36767 1.2905 3.25598 1.40219 3.25598 1.53996H2.63232ZM2.32049 2.9121C2.49271 2.9121 2.63232 2.77249 2.63232 2.60027H3.25598C3.25598 3.11692 2.83715 3.53575 2.32049 3.53575V2.9121ZM0.387147 3.78522C0.387147 3.30301 0.778055 2.9121 1.26027 2.9121V3.53575C1.12249 3.53575 1.0108 3.64744 1.0108 3.78522H0.387147ZM1.26027 4.65833C0.778055 4.65833 0.387147 4.26743 0.387147 3.78522H1.0108C1.0108 3.92299 1.12249 4.03468 1.26027 4.03468V4.65833ZM2.63232 4.97016C2.63232 4.79795 2.49271 4.65833 2.32049 4.65833V4.03468C2.83715 4.03468 3.25598 4.45351 3.25598 4.97016H2.63232ZM2.32049 8.525C2.49271 8.525 2.63232 8.38539 2.63232 8.21317H3.25598C3.25598 8.72983 2.83715 9.14866 2.32049 9.14866V8.525ZM0.387147 9.39812C0.387147 8.91591 0.778056 8.525 1.26027 8.525V9.14866C1.12249 9.14866 1.0108 9.26034 1.0108 9.39812H0.387147ZM1.26027 10.2712C0.778055 10.2712 0.387147 9.88033 0.387147 9.39812H1.0108C1.0108 9.53589 1.12249 9.64758 1.26027 9.64758V10.2712ZM3.25598 13.8259C3.25598 14.3426 2.83715 14.7614 2.3205 14.7614V14.1378C2.49271 14.1378 2.63232 13.9981 2.63232 13.8259H3.25598ZM2.63232 10.5831C2.63232 10.4108 2.49271 10.2712 2.3205 10.2712V9.64758C2.83715 9.64758 3.25598 10.0664 3.25598 10.5831H2.63232ZM4.37856 13.8259C4.37856 13.9981 4.51817 14.1378 4.69039 14.1378V14.7614C4.17373 14.7614 3.7549 14.3426 3.7549 13.8259H4.37856ZM4.69039 10.2712C4.51817 10.2712 4.37856 10.4108 4.37856 10.5831H3.7549C3.7549 10.0664 4.17373 9.64758 4.69039 9.64758V10.2712ZM8.86888 13.8259C8.86888 14.3426 8.45005 14.7614 7.9334 14.7614V14.1378C8.10562 14.1378 8.24523 13.9981 8.24523 13.8259L8.86888 13.8259ZM8.24523 10.5831C8.24523 10.4108 8.10562 10.2712 7.9334 10.2712V9.64758C8.45005 9.64758 8.86888 10.0664 8.86888 10.5831L8.24523 10.5831ZM9.99146 13.8259C9.99146 13.9981 10.1311 14.1378 10.3033 14.1378V14.7614C9.78664 14.7614 9.36781 14.3426 9.36781 13.8259H9.99146ZM10.3033 10.2712C10.1311 10.2712 9.99146 10.4108 9.99146 10.5831H9.36781C9.36781 10.0664 9.78664 9.64758 10.3033 9.64758V10.2712ZM14.4817 13.8259C14.4817 14.3426 14.0629 14.7614 13.5462 14.7614V14.1378C13.7184 14.1378 13.8581 13.9981 13.8581 13.8259H14.4817ZM13.8581 10.5831C13.8581 10.4108 13.7184 10.2712 13.5462 10.2712V9.64758C14.0629 9.64758 14.4817 10.0664 14.4817 10.5831H13.8581Z" fill="black"/>
</svg>
