<svg width="18" height="18" viewBox="0 0 18 18" fill="none" xmlns="http://www.w3.org/2000/svg">
<path d="M15.842 9.08608C15.842 5.34895 12.8124 2.31941 9.0753 2.31941C5.33817 2.31941 2.30863 5.34895 2.30863 9.08608C2.30863 12.8232 5.33817 15.8527 9.0753 15.8527C12.8124 15.8527 15.842 12.8232 15.842 9.08608ZM9.0753 0.885002C13.6046 0.885002 17.2764 4.55675 17.2764 9.08608C17.2764 13.6154 13.6046 17.2872 9.0753 17.2872C4.54597 17.2872 0.874225 13.6154 0.874225 9.08608C0.874225 4.55675 4.54597 0.885002 9.0753 0.885002Z" fill="black" stroke="black" stroke-width="0.187097"/>
<path d="M13.3473 9.08607C13.3473 6.72669 11.4347 4.81403 9.07531 4.81403C6.71592 4.81403 4.80326 6.72669 4.80326 9.08607C4.80326 11.4455 6.71592 13.3581 9.07531 13.3581C11.4347 13.3581 13.3473 11.4455 13.3473 9.08607ZM9.07531 3.37962C12.2269 3.37962 14.7818 5.93449 14.7818 9.08607C14.7818 12.2377 12.2269 14.7925 9.07531 14.7925C5.92372 14.7925 3.36885 12.2377 3.36885 9.08607C3.36885 5.93449 5.92372 3.37962 9.07531 3.37962Z" fill="black" stroke="black" stroke-width="0.187097"/>
</svg>
